<svg width="28" height="28" viewBox="0 0 28 28" fill="none" xmlns="http://www.w3.org/2000/svg">
<path d="M20.875 24.625H3.375V7.125H14.625V4.625H3.375C2 4.625 0.875 5.75 0.875 7.125V24.625C0.875 26 2 27.125 3.375 27.125H20.875C22.25 27.125 23.375 26 23.375 24.625V13.375H20.875V24.625ZM11.1375 20.6625L8.6875 17.7125L5.25 22.125H19L14.575 16.2375L11.1375 20.6625ZM23.375 4.625V0.875H20.875V4.625H17.125C17.1375 4.6375 17.125 7.125 17.125 7.125H20.875V10.8625C20.8875 10.875 23.375 10.8625 23.375 10.8625V7.125H27.125V4.625H23.375Z" fill="white"/>
</svg>
