<svg width="28" height="28" viewBox="0 0 28 28" fill="none" xmlns="http://www.w3.org/2000/svg">
<path d="M7.63 5.83333C7.7 6.87167 7.875 7.88667 8.155 8.855L6.755 10.255C6.27667 8.855 5.97333 7.37333 5.86833 5.83333H7.63ZM19.1333 19.8567C20.125 20.1367 21.14 20.3117 22.1667 20.3817V22.12C20.6267 22.015 19.145 21.7117 17.7333 21.245L19.1333 19.8567ZM8.75 3.5H4.66667C4.025 3.5 3.5 4.025 3.5 4.66667C3.5 15.6217 12.3783 24.5 23.3333 24.5C23.975 24.5 24.5 23.975 24.5 23.3333V19.2617C24.5 18.62 23.975 18.095 23.3333 18.095C21.8867 18.095 20.475 17.8617 19.1683 17.43C19.0517 17.3833 18.9233 17.3717 18.8067 17.3717C18.5033 17.3717 18.2117 17.4883 17.9783 17.71L15.4117 20.2767C12.11 18.585 9.40333 15.89 7.72333 12.5883L10.29 10.0217C10.6167 9.695 10.71 9.24 10.5817 8.83167C10.15 7.525 9.91667 6.125 9.91667 4.66667C9.91667 4.025 9.39167 3.5 8.75 3.5Z" fill="#00F100"/>
</svg>
