<svg width="30" height="30" viewBox="0 0 30 30" fill="none" xmlns="http://www.w3.org/2000/svg">
<mask id="mask0_1174_12869" style="mask-type:alpha" maskUnits="userSpaceOnUse" x="0" y="0" width="30" height="30">
<path fill-rule="evenodd" clip-rule="evenodd" d="M18.45 16.5875L25.6125 23.75L23.75 25.6125L16.5875 18.45C15.25 19.4125 13.6375 20 11.875 20C7.3875 20 3.75 16.3625 3.75 11.875C3.75 7.3875 7.3875 3.75 11.875 3.75C16.3625 3.75 20 7.3875 20 11.875C20 13.6375 19.4125 15.25 18.45 16.5875ZM11.875 6.25C8.7625 6.25 6.25 8.7625 6.25 11.875C6.25 14.9875 8.7625 17.5 11.875 17.5C14.9875 17.5 17.5 14.9875 17.5 11.875C17.5 8.7625 14.9875 6.25 11.875 6.25Z" fill="black"/>
</mask>
<g mask="url(#mask0_1174_12869)">
<rect width="30" height="30" fill="#00F100"/>
</g>
</svg>
